<mxfile host="app.diagrams.net" modified="2024-05-06T08:58:49.982Z" agent="Mozilla/5.0 (Macintosh; Intel Mac OS X 10_15_7) AppleWebKit/537.36 (KHTML, like Gecko) Chrome/123.0.0.0 Safari/537.36 Edg/123.0.0.0" version="24.3.1" etag="5n_Xxlo44tNkaeqepa1m" type="github">
  <diagram name="Page-1" id="UmJ6IaSIyDyGGRNLVKWW">
    <mxGraphModel>
      <root>
        <mxCell id="0" />
        <mxCell id="1" parent="0" />
      </root>
    </mxGraphModel>
  </diagram>
</mxfile>
